<svg xmlns="http://www.w3.org/2000/svg" width="128" viewBox="0 0 128 128" height="128">
	<rect ry="10.328" y="12.451" x="12.451" height="103.099" width="103.099" fill="#03a9f4" stroke="#03a9f4" stroke-width="24.901" stroke-linejoin="round"/>
	<g fill="#ff9800">
		<path d="M101.38 74.196c-5.669.99-11.337 1.984-17.005 2.977l3.975-11.025c.307-.845.414-1.636.376-2.361.044-1.288-.335-2.671-1.292-4.084-4.179-6.157-8.352-12.312-12.528-18.467 4.977.779 9.954 1.579 14.937 2.339 7.668 1.172 8.75-8.396 2.579-9.362-10.168-1.592-20.336-3.188-30.506-4.778-.43-.068-1.996-.312-3.612.506-8.712 4.418-17.418 8.849-26.125 13.275-5.582 2.839-.666 11.215 4.9 8.384 6.297-3.202 12.597-6.401 18.893-9.6.187.404 7.85 11.788 11.433 17.07-14.635 2.562-29.294 4.982-43.905 7.685-7.291 1.35-5.37 13.182 3.225 11.702 15.777-2.716 31.54-5.52 47.31-8.282-1.32 3.662-4.097 11.401-4.15 11.606-1.794 3.81 1.463 9.94 7.12 8.948 9.2-1.613 18.4-3.222 27.601-4.831 7.699-1.348 4.426-13.04-3.226-11.702zM52.172 30.664c5.627 0 10.188-4.561 10.188-10.188 0-5.627-4.56-10.189-10.188-10.189-5.627 0-10.188 4.562-10.188 10.189s4.56 10.188 10.188 10.188z"/>
		<path d="M62.679 81.763c-.671 0-1.214.542-1.214 1.213v33.523a1.214 1.214 0 1 0 2.427 0V82.976c0-.671-.542-1.213-1.213-1.213z"/>
	</g>
</svg>